# xmcd
#
# Track frame offsets: 
#        150
#        21872
#        44667
#        51017
#        71566
#
# Disc length: 1248 seconds
#
# Revision: 1
# Processed by: cddbd v1.5.2PL0 Copyright (c) Steve Scherf et al.
# Submitted via: ExactAudioCopy v0.99pb3
#
DISCID=4104de05
DTITLE=31 Knots - The Curse of the Longest Day
DYEAR=2005
DGENRE=Math Rock
TTITLE0=Welcome to Stop
TTITLE1=The Corpse and the Carcass
TTITLE2=Interlude
TTITLE3=The Story of Ivan Normal
TTITLE4=Coward with Claws
EXTD=
EXTT0=
EXTT1=
EXTT2=
EXTT3=
EXTT4=
PLAYORDER=
